<?xml version="1.0" encoding="UTF-8" standalone="no" ?>
<!DOCTYPE svg PUBLIC "-//W3C//DTD SVG 1.1//EN" "http://www.w3.org/Graphics/SVG/1.1/DTD/svg11.dtd">
<svg xmlns="http://www.w3.org/2000/svg" xmlns:xlink="http://www.w3.org/1999/xlink" version="1.1" width="1080" height="1080" viewBox="0 0 1080 1080" xml:space="preserve">
<desc>Created with Fabric.js 5.2.4</desc>
<defs>
</defs>
<g transform="matrix(1 0 0 1 540 540)" id="3e884333-926d-4fc0-bdb7-9d0cf3eed934"  >
<rect style="stroke: none; stroke-width: 1; stroke-dasharray: none; stroke-linecap: butt; stroke-dashoffset: 0; stroke-linejoin: miter; stroke-miterlimit: 4; fill: rgb(255,255,255); fill-rule: nonzero; opacity: 1; visibility: hidden;" vector-effect="non-scaling-stroke"  x="-540" y="-540" rx="0" ry="0" width="1080" height="1080" />
</g>
<g transform="matrix(1 0 0 1 540 540)" id="66de6d19-de72-42a1-828b-7e8e923877df"  >
</g>
<g transform="matrix(1 0 0 1 541 540)"  >
<g style="" vector-effect="non-scaling-stroke"   >
		<g transform="matrix(1.33 0 0 -1.33 375.29 -19.44)" clip-path="url(#CLIPPATH_9)"  >
<clipPath id="CLIPPATH_9" >
	<path transform="matrix(1 0 0 1 -281.35 -13.76) translate(-396, -306)" d="M 0 612 L 792 612 L 792 0 L 0 0 Z" stroke-linecap="round" />
</clipPath>
<path style="stroke: none; stroke-width: 1; stroke-dasharray: none; stroke-linecap: butt; stroke-dashoffset: 0; stroke-linejoin: miter; stroke-miterlimit: 4; fill: rgb(207,103,60); fill-rule: nonzero; opacity: 1;" vector-effect="non-scaling-stroke"  transform=" translate(43.65, 42.77)" d="M 0 0 C -1.787 -12.326 -7.324 -22.535 -16.561 -30.627 C -25.812 -38.734 -36.994 -42.781 -50.105 -42.781 C -62.949 -42.781 -72.906 -38.734 -79.963 -30.627 C -87.037 -22.535 -89.672 -12.326 -87.867 0 C -86.08 12.342 -80.607 22.551 -71.496 30.643 C -62.369 38.734 -51.25 42.781 -38.154 42.781 C -25.311 42.781 -15.291 38.736 -8.092 30.643 C -0.895 22.551 1.803 12.342 0 0 M 55.5 40.664 C 51.908 52.098 46.121 61.93 38.154 70.146 C 30.187 78.365 20.293 84.73 8.484 89.232 C -3.34 93.717 -16.311 95.977 -30.439 95.975 C -44.836 95.975 -58.51 93.717 -71.496 89.232 C -84.465 84.73 -96.102 78.365 -106.373 70.146 C -116.645 61.93 -125.254 52.096 -132.186 40.664 C -139.133 29.232 -143.492 16.451 -145.295 2.32 C -147.1 -10.021 -146.707 -21.641 -144.135 -32.557 C -141.58 -43.486 -137.141 -52.928 -130.836 -60.895 C -124.549 -68.861 -116.457 -75.148 -106.561 -79.775 C -96.666 -84.402 -85.295 -86.707 -72.451 -86.707 C -69.111 -86.707 -65.896 -86.455 -62.822 -85.938 C -59.734 -85.438 -56.52 -84.777 -53.178 -84.01 L -130.648 -181.521 L -60.125 -181.521 L 12.719 -88.26 C 17.861 -81.313 22.865 -74.568 27.758 -68.014 C 32.635 -61.475 37.057 -54.59 41.057 -47.406 C 45.023 -40.209 48.506 -32.557 51.453 -24.465 C 54.402 -16.371 56.66 -7.449 58.197 2.322 C 60 16.451 59.105 29.232 55.5 40.664" stroke-linecap="round" />
</g>
		<g transform="matrix(1.33 0 0 -1.33 -375.99 -19.43)" clip-path="url(#CLIPPATH_10)"  >
<clipPath id="CLIPPATH_10" >
	<path transform="matrix(1 0 0 1 282.11 -13.76) translate(-396, -306)" d="M 0 612 L 792 612 L 792 0 L 0 0 Z" stroke-linecap="round" />
</clipPath>
<path style="stroke: none; stroke-width: 1; stroke-dasharray: none; stroke-linecap: butt; stroke-dashoffset: 0; stroke-linejoin: miter; stroke-miterlimit: 4; fill: rgb(207,103,60); fill-rule: nonzero; opacity: 1;" vector-effect="non-scaling-stroke"  transform=" translate(43.65, 42.77)" d="M 0 0 C -1.789 -12.326 -7.324 -22.535 -16.561 -30.629 C -25.812 -38.736 -36.994 -42.781 -50.105 -42.781 C -62.949 -42.781 -72.906 -38.736 -79.965 -30.629 C -87.037 -22.535 -89.672 -12.326 -87.867 0 C -86.08 12.342 -80.607 22.551 -71.496 30.643 C -62.369 38.734 -51.25 42.781 -38.156 42.781 C -25.312 42.781 -15.291 38.734 -8.092 30.643 C -0.895 22.551 1.803 12.342 0 0 M 55.5 40.664 C 51.908 52.096 46.121 61.93 38.154 70.146 C 30.187 78.363 20.293 84.73 8.484 89.23 C -3.34 93.717 -16.311 95.975 -30.439 95.975 C -44.836 95.975 -58.512 93.717 -71.496 89.23 C -84.465 84.73 -96.102 78.363 -106.373 70.146 C -116.645 61.928 -125.254 52.096 -132.186 40.664 C -139.133 29.23 -143.492 16.449 -145.297 2.32 C -147.1 -10.021 -146.707 -21.643 -144.137 -32.557 C -141.58 -43.488 -137.141 -52.928 -130.838 -60.895 C -124.549 -68.861 -116.457 -75.15 -106.561 -79.775 C -96.666 -84.402 -85.297 -86.707 -72.453 -86.707 C -69.111 -86.707 -65.896 -86.457 -62.824 -85.939 C -59.734 -85.438 -56.52 -84.779 -53.18 -84.01 L -130.648 -181.523 L -60.125 -181.523 L 12.719 -88.26 C 17.861 -81.313 22.865 -74.57 27.758 -68.014 C 32.635 -61.475 37.057 -54.59 41.057 -47.408 C 45.023 -40.209 48.504 -32.557 51.453 -24.465 C 54.4 -16.373 56.66 -7.449 58.197 2.32 C 60 16.451 59.105 29.23 55.5 40.664" stroke-linecap="round" />
</g>
		<g transform="matrix(1.33 0 0 -1.33 -113.91 -39.86)" clip-path="url(#CLIPPATH_11)"  >
<clipPath id="CLIPPATH_11" >
	<path transform="matrix(1 0 0 1 85.61 -29.22) translate(-396, -306)" d="M 0 612 L 792 612 L 792 0 L 0 0 Z" stroke-linecap="round" />
</clipPath>
<path style="stroke: none; stroke-width: 1; stroke-dasharray: none; stroke-linecap: butt; stroke-dashoffset: 0; stroke-linejoin: miter; stroke-miterlimit: 4; fill: rgb(207,103,60); fill-rule: nonzero; opacity: 1;" vector-effect="non-scaling-stroke"  transform=" translate(-39.49, -0.65)" d="M 0 0 C 0.861 6.018 2.629 11.668 5.254 16.777 C 7.863 21.881 11.211 26.34 15.195 30.021 C 19.166 33.688 23.805 36.586 28.988 38.627 C 32.951 40.201 37.393 41.162 41.865 41.527 L 26.08 21.314 C 24.885 19.701 23.721 18.133 22.584 16.609 C 21.451 15.086 20.42 13.486 19.492 11.814 C 18.973 10.875 18.494 9.9 18.051 8.895 C 16.811 6.537 16.008 3.947 15.65 1.129 C 15.639 1.057 15.633 0.984 15.623 0.912 C 15.584 0.691 15.539 0.477 15.504 0.252 C 15.086 -3.033 15.295 -6.006 16.131 -8.666 C 16.969 -11.324 18.312 -13.609 20.164 -15.521 C 22.018 -17.434 24.318 -18.912 27.066 -19.959 C 29.512 -20.889 32.17 -21.402 35.039 -21.506 L 21.291 -38.811 C 19.902 -38.412 18.574 -37.945 17.338 -37.395 C 12.957 -35.434 9.324 -32.674 6.537 -29.197 C 3.703 -25.686 1.682 -21.449 0.52 -16.6 C -0.674 -11.65 -0.848 -6.066 0 0 M 37.91 -9.158 C 34.924 -9.158 32.594 -8.217 30.92 -6.336 C 29.256 -4.463 28.629 -2.102 29.033 0.746 C 29.475 3.543 30.73 5.869 32.813 7.715 C 34.934 9.598 37.52 10.539 40.566 10.539 C 43.553 10.539 45.883 9.598 47.557 7.715 C 49.221 5.844 49.848 3.482 49.443 0.633 C 49.002 -2.164 47.746 -4.488 45.664 -6.336 C 43.543 -8.217 40.957 -9.158 37.91 -9.158 M 72.584 30.486 C 75.441 27.008 77.449 22.764 78.557 17.881 C 79.695 12.859 79.842 7.291 78.992 1.314 C 78.137 -4.809 76.373 -10.482 73.752 -15.545 C 71.143 -20.574 67.795 -25.008 63.799 -28.699 C 59.84 -32.355 55.197 -35.254 50.014 -37.313 C 45.865 -38.951 41.207 -39.918 36.537 -40.24 L 52.396 -19.934 C 53.592 -18.32 54.756 -16.752 55.893 -15.229 C 57.027 -13.705 58.057 -12.107 58.984 -10.434 C 59.504 -9.494 59.982 -8.52 60.426 -7.516 C 61.666 -5.156 62.469 -2.568 62.826 0.252 C 62.838 0.324 62.844 0.395 62.854 0.467 C 62.893 0.689 62.938 0.902 62.973 1.129 C 63.391 4.414 63.182 7.387 62.346 10.047 C 61.508 12.705 60.164 14.99 58.313 16.902 C 56.459 18.814 54.158 20.293 51.41 21.34 C 48.967 22.268 46.307 22.783 43.438 22.887 L 57.238 40.256 C 58.797 39.832 60.285 39.322 61.66 38.709 C 66.053 36.74 69.727 33.98 72.584 30.486 M -26.588 -56.965 C -20.227 -63.979 -12.168 -69.424 -2.645 -73.139 C 6.752 -76.813 17.42 -78.674 29.062 -78.674 C 40.648 -78.674 51.74 -76.828 62.027 -73.188 C 72.326 -69.555 81.691 -64.248 89.865 -57.414 C 98.021 -50.596 104.871 -42.219 110.223 -32.504 C 115.559 -22.828 119.113 -11.887 120.795 0.008 C 122.479 11.969 121.967 23 119.27 32.814 C 116.537 42.709 111.934 51.273 105.576 58.295 C 99.221 65.293 91.203 70.73 81.748 74.453 C 63.125 81.793 37.822 81.809 17.072 74.518 C 6.676 70.861 -2.697 65.553 -10.789 58.721 C -18.893 51.887 -25.73 43.518 -31.119 33.85 C -36.535 24.15 -40.129 13.201 -41.803 1.322 C -43.492 -10.646 -42.979 -21.686 -40.275 -31.49 C -37.549 -41.395 -32.943 -49.967 -26.588 -56.965" stroke-linecap="round" />
</g>
		<g transform="matrix(1.33 0 0 -1.33 106.53 -39.86)" clip-path="url(#CLIPPATH_12)"  >
<clipPath id="CLIPPATH_12" >
	<path transform="matrix(1 0 0 1 -79.72 -29.23) translate(-396, -306)" d="M 0 612 L 792 612 L 792 0 L 0 0 Z" stroke-linecap="round" />
</clipPath>
<path style="stroke: none; stroke-width: 1; stroke-dasharray: none; stroke-linecap: butt; stroke-dashoffset: 0; stroke-linejoin: miter; stroke-miterlimit: 4; fill: rgb(207,103,60); fill-rule: nonzero; opacity: 1;" vector-effect="non-scaling-stroke"  transform=" translate(29.55, -12.11)" d="M 0 0 L -41.414 87.836 L -91.021 87.836 L -112.197 -63.617 L -71.41 -63.617 L -58.865 26.65 L -16.066 -63.617 L 31.928 -63.617 L 53.103 87.836 L 12.32 87.836 Z" stroke-linecap="round" />
</g>
		<g transform="matrix(1.33 0 0 -1.33 -27.75 105.73)" clip-path="url(#CLIPPATH_13)"  >
<clipPath id="CLIPPATH_13" >
	<path transform="matrix(1 0 0 1 20.8 79.82) translate(-396, -306)" d="M 0 612 L 792 612 L 792 0 L 0 0 Z" stroke-linecap="round" />
</clipPath>
<path style="stroke: none; stroke-width: 1; stroke-dasharray: none; stroke-linecap: butt; stroke-dashoffset: 0; stroke-linejoin: miter; stroke-miterlimit: 4; fill: rgb(207,103,60); fill-rule: nonzero; opacity: 1;" vector-effect="non-scaling-stroke"  transform=" translate(-159.8, -20.16)" d="M 0 0 L 314.102 -0.586 L 319.596 40.318 L 5.494 40.906 Z" stroke-linecap="round" />
</g>
		<g transform="matrix(1.33 0 0 -1.33 37.38 192.63)" clip-path="url(#CLIPPATH_14)"  >
<clipPath id="CLIPPATH_14" >
	<path transform="matrix(1 0 0 1 -27.67 144.96) translate(-396, -306)" d="M 0 612 L 792 612 L 792 0 L 0 0 Z" stroke-linecap="round" />
</clipPath>
<path style="stroke: none; stroke-width: 1; stroke-dasharray: none; stroke-linecap: butt; stroke-dashoffset: 0; stroke-linejoin: miter; stroke-miterlimit: 4; fill: rgb(207,103,60); fill-rule: nonzero; opacity: 1;" vector-effect="non-scaling-stroke"  transform=" translate(4.13, -1.23)" d="M 0 0 C -0.167 -0.592 -0.407 -1.11 -0.718 -1.55 C -1.03 -1.992 -1.387 -2.365 -1.79 -2.668 C -2.193 -2.972 -2.631 -3.201 -3.102 -3.353 C -3.574 -3.505 -4.06 -3.581 -4.562 -3.581 C -5.276 -3.581 -5.9 -3.455 -6.433 -3.204 C -6.966 -2.954 -7.395 -2.608 -7.721 -2.167 C -8.048 -1.725 -8.269 -1.209 -8.382 -0.615 C -8.497 -0.022 -8.509 0.616 -8.418 1.301 C -8.327 2.001 -8.139 2.644 -7.859 3.229 C -7.577 3.813 -7.22 4.32 -6.786 4.745 C -6.353 5.172 -5.839 5.503 -5.247 5.739 C -4.652 5.974 -3.992 6.091 -3.262 6.091 C -2.228 6.091 -1.368 5.815 -0.683 5.26 C 0 4.704 0.351 3.856 0.366 2.716 L -1.779 2.716 C -1.81 3.203 -1.977 3.544 -2.28 3.743 C -2.584 3.94 -2.943 4.038 -3.353 4.038 C -4.097 4.038 -4.688 3.795 -5.12 3.308 C -5.555 2.822 -5.831 2.168 -5.954 1.346 C -6.075 0.496 -5.98 -0.197 -5.668 -0.73 C -5.356 -1.262 -4.866 -1.528 -4.198 -1.528 C -3.709 -1.528 -3.277 -1.413 -2.896 -1.186 C -2.516 -0.958 -2.265 -0.563 -2.144 0 Z M -10.287 1.233 C -10.41 0.351 -10.365 -0.483 -10.152 -1.266 C -9.938 -2.05 -9.593 -2.729 -9.114 -3.306 C -8.635 -3.886 -8.044 -4.344 -7.344 -4.688 C -6.646 -5.029 -5.87 -5.2 -5.018 -5.2 C -4.166 -5.2 -3.345 -5.029 -2.555 -4.688 C -1.764 -4.344 -1.049 -3.886 -0.41 -3.306 C 0.228 -2.729 0.765 -2.05 1.199 -1.266 C 1.632 -0.483 1.909 0.351 2.031 1.233 C 2.154 2.115 2.107 2.946 1.894 3.73 C 1.682 4.513 1.339 5.195 0.867 5.772 C 0.395 6.349 -0.189 6.81 -0.889 7.153 C -1.589 7.495 -2.363 7.666 -3.216 7.666 C -4.068 7.666 -4.892 7.495 -5.69 7.153 C -6.489 6.81 -7.209 6.349 -7.848 5.772 C -8.486 5.195 -9.021 4.513 -9.455 3.73 C -9.888 2.946 -10.166 2.115 -10.287 1.233 M -12.615 1.233 C -12.448 2.404 -12.068 3.503 -11.473 4.53 C -10.881 5.557 -10.148 6.453 -9.273 7.222 C -8.399 7.989 -7.413 8.598 -6.318 9.047 C -5.224 9.494 -4.09 9.719 -2.918 9.719 C -1.749 9.719 -0.68 9.494 0.286 9.047 C 1.251 8.598 2.066 7.989 2.727 7.222 C 3.388 6.453 3.867 5.557 4.164 4.53 C 4.461 3.503 4.524 2.404 4.357 1.233 C 4.19 0.061 3.813 -1.038 3.229 -2.064 C 2.644 -3.091 1.909 -3.988 1.027 -4.756 C 0.145 -5.523 -0.839 -6.132 -1.927 -6.581 C -3.015 -7.029 -4.144 -7.253 -5.315 -7.253 C -6.487 -7.253 -7.554 -7.029 -8.52 -6.581 C -9.485 -6.132 -10.3 -5.523 -10.961 -4.756 C -11.622 -3.988 -12.105 -3.091 -12.409 -2.064 C -12.714 -1.038 -12.782 0.061 -12.615 1.233" stroke-linecap="round" />
</g>
		<g transform="matrix(1.33 0 0 -1.33 64.76 192.89)" clip-path="url(#CLIPPATH_15)"  >
<clipPath id="CLIPPATH_15" >
	<path transform="matrix(1 0 0 1 -48.2 145.16) translate(-396, -306)" d="M 0 612 L 792 612 L 792 0 L 0 0 Z" stroke-linecap="round" />
</clipPath>
<path style="stroke: none; stroke-width: 1; stroke-dasharray: none; stroke-linecap: butt; stroke-dashoffset: 0; stroke-linejoin: miter; stroke-miterlimit: 4; fill: rgb(207,103,60); fill-rule: nonzero; opacity: 1;" vector-effect="non-scaling-stroke"  transform=" translate(4.45, -2.47)" d="M 0 0 C -0.106 -0.746 -0.274 -1.469 -0.502 -2.169 C -0.73 -2.87 -1.065 -3.49 -1.507 -4.03 C -1.948 -4.571 -2.531 -5.004 -3.254 -5.332 C -3.977 -5.659 -4.887 -5.823 -5.982 -5.823 C -7.262 -5.823 -8.3 -5.518 -9.1 -4.909 C -9.898 -4.301 -10.336 -3.349 -10.412 -2.055 L -7.033 -1.256 C -7.048 -1.652 -6.919 -1.986 -6.645 -2.26 C -6.371 -2.535 -6.036 -2.671 -5.64 -2.671 C -5.229 -2.671 -4.895 -2.569 -4.636 -2.363 C -4.377 -2.158 -4.171 -1.903 -4.019 -1.598 C -3.867 -1.294 -3.756 -0.963 -3.688 -0.605 C -3.619 -0.248 -3.563 0.083 -3.517 0.388 L -2.055 10.755 L 1.507 10.755 Z" stroke-linecap="round" />
</g>
		<g transform="matrix(1.33 0 0 -1.33 82.85 192.62)" clip-path="url(#CLIPPATH_16)"  >
<clipPath id="CLIPPATH_16" >
	<path transform="matrix(1 0 0 1 -61.77 144.96) translate(-396, -306)" d="M 0 612 L 792 612 L 792 0 L 0 0 Z" stroke-linecap="round" />
</clipPath>
<path style="stroke: none; stroke-width: 1; stroke-dasharray: none; stroke-linecap: butt; stroke-dashoffset: 0; stroke-linejoin: miter; stroke-miterlimit: 4; fill: rgb(207,103,60); fill-rule: nonzero; opacity: 1;" vector-effect="non-scaling-stroke"  transform=" translate(1.47, 3.38)" d="M 0 0 L -2.671 -5.023 L 1.279 -5.023 Z M -0.708 4.704 L 2.238 4.704 L 7.011 -11.463 L 2.991 -11.463 L 2.078 -8.038 L -4.201 -8.038 L -6.028 -11.463 L -9.955 -11.463 Z" stroke-linecap="round" />
</g>
		<g transform="matrix(1.33 0 0 -1.33 103.59 192.62)" clip-path="url(#CLIPPATH_17)"  >
<clipPath id="CLIPPATH_17" >
	<path transform="matrix(1 0 0 1 -77.32 144.96) translate(-396, -306)" d="M 0 612 L 792 612 L 792 0 L 0 0 Z" stroke-linecap="round" />
</clipPath>
<path style="stroke: none; stroke-width: 1; stroke-dasharray: none; stroke-linecap: butt; stroke-dashoffset: 0; stroke-linejoin: miter; stroke-miterlimit: 4; fill: rgb(207,103,60); fill-rule: nonzero; opacity: 1;" vector-effect="non-scaling-stroke"  transform=" translate(-3.05, 8.08)" d="M 0 0 L 3.562 0 L 1.758 -12.878 L 8.357 -12.878 L 7.9 -16.167 L -2.261 -16.167 Z" stroke-linecap="round" />
</g>
		<g transform="matrix(1.33 0 0 -1.33 121.6 192.62)" clip-path="url(#CLIPPATH_18)"  >
<clipPath id="CLIPPATH_18" >
	<path transform="matrix(1 0 0 1 -90.83 144.96) translate(-396, -306)" d="M 0 612 L 792 612 L 792 0 L 0 0 Z" stroke-linecap="round" />
</clipPath>
<path style="stroke: none; stroke-width: 1; stroke-dasharray: none; stroke-linecap: butt; stroke-dashoffset: 0; stroke-linejoin: miter; stroke-miterlimit: 4; fill: rgb(207,103,60); fill-rule: nonzero; opacity: 1;" vector-effect="non-scaling-stroke"  transform=" translate(-4.29, 8.08)" d="M 0 0 L 10.846 0 L 10.39 -3.288 L 3.105 -3.288 L 2.648 -6.576 L 9.385 -6.576 L 8.905 -9.864 L 2.169 -9.864 L 1.301 -16.167 L -2.261 -16.167 Z" stroke-linecap="round" />
</g>
		<g transform="matrix(1.33 0 0 -1.33 138.14 192.62)" clip-path="url(#CLIPPATH_19)"  >
<clipPath id="CLIPPATH_19" >
	<path transform="matrix(1 0 0 1 -103.24 144.96) translate(-396, -306)" d="M 0 612 L 792 612 L 792 0 L 0 0 Z" stroke-linecap="round" />
</clipPath>
<path style="stroke: none; stroke-width: 1; stroke-dasharray: none; stroke-linecap: butt; stroke-dashoffset: 0; stroke-linejoin: miter; stroke-miterlimit: 4; fill: rgb(207,103,60); fill-rule: nonzero; opacity: 1;" vector-effect="non-scaling-stroke"  transform=" translate(1.47, 3.38)" d="M 0 0 L -2.671 -5.023 L 1.279 -5.023 Z M -0.708 4.704 L 2.238 4.704 L 7.011 -11.463 L 2.991 -11.463 L 2.078 -8.038 L -4.201 -8.038 L -6.028 -11.463 L -9.955 -11.463 Z" stroke-linecap="round" />
</g>
		<g transform="matrix(1.33 0 0 -1.33 165.29 192.62)" clip-path="url(#CLIPPATH_20)"  >
<clipPath id="CLIPPATH_20" >
	<path transform="matrix(1 0 0 1 -123.61 144.96) translate(-396, -306)" d="M 0 612 L 792 612 L 792 0 L 0 0 Z" stroke-linecap="round" />
</clipPath>
<path style="stroke: none; stroke-width: 1; stroke-dasharray: none; stroke-linecap: butt; stroke-dashoffset: 0; stroke-linejoin: miter; stroke-miterlimit: 4; fill: rgb(207,103,60); fill-rule: nonzero; opacity: 1;" vector-effect="non-scaling-stroke"  transform=" translate(-8, 8.08)" d="M 0 0 L 5.39 0 L 7.627 -10.549 L 7.673 -10.549 L 12.901 0 L 18.268 0 L 16.007 -16.167 L 12.445 -16.167 L 14.181 -3.768 L 14.135 -3.768 L 8.152 -16.167 L 5.435 -16.167 L 3.083 -3.768 L 3.037 -3.768 L 1.302 -16.167 L -2.26 -16.167 Z" stroke-linecap="round" />
</g>
		<g transform="matrix(1.33 0 0 -1.33 200.35 192.62)" clip-path="url(#CLIPPATH_21)"  >
<clipPath id="CLIPPATH_21" >
	<path transform="matrix(1 0 0 1 -149.89 144.96) translate(-396, -306)" d="M 0 612 L 792 612 L 792 0 L 0 0 Z" stroke-linecap="round" />
</clipPath>
<path style="stroke: none; stroke-width: 1; stroke-dasharray: none; stroke-linecap: butt; stroke-dashoffset: 0; stroke-linejoin: miter; stroke-miterlimit: 4; fill: rgb(207,103,60); fill-rule: nonzero; opacity: 1;" vector-effect="non-scaling-stroke"  transform=" translate(6.56, -6.94)" d="M 0 0 C -1.142 -0.548 -2.299 -0.944 -3.471 -1.187 C -4.643 -1.431 -5.822 -1.553 -7.01 -1.553 C -8.273 -1.553 -9.411 -1.354 -10.424 -0.959 C -11.437 -0.563 -12.277 0.004 -12.947 0.742 C -13.617 1.48 -14.097 2.375 -14.386 3.425 C -14.675 4.476 -14.728 5.647 -14.545 6.942 C -14.362 8.235 -13.979 9.408 -13.392 10.458 C -12.807 11.509 -12.075 12.403 -11.2 13.141 C -10.325 13.879 -9.324 14.446 -8.197 14.842 C -7.071 15.238 -5.876 15.436 -4.612 15.436 C -3.318 15.436 -2.15 15.28 -1.107 14.968 C -0.064 14.656 0.814 14.119 1.53 13.358 L -1.37 10.618 C -1.781 11.121 -2.275 11.501 -2.854 11.76 C -3.433 12.019 -4.179 12.148 -5.092 12.148 C -5.854 12.148 -6.562 12.019 -7.216 11.76 C -7.87 11.501 -8.448 11.139 -8.951 10.675 C -9.453 10.21 -9.868 9.659 -10.195 9.02 C -10.522 8.38 -10.739 7.687 -10.846 6.942 C -10.953 6.18 -10.93 5.484 -10.777 4.853 C -10.626 4.221 -10.363 3.672 -9.99 3.208 C -9.617 2.744 -9.142 2.382 -8.563 2.124 C -7.984 1.865 -7.314 1.735 -6.553 1.735 C -5.776 1.735 -5.092 1.823 -4.498 1.998 C -3.904 2.173 -3.433 2.352 -3.082 2.535 L -2.717 5.161 L -5.617 5.161 L -5.138 8.449 L 1.187 8.449 Z" stroke-linecap="round" />
</g>
		<g transform="matrix(1.33 0 0 -1.33 219.74 196)" clip-path="url(#CLIPPATH_22)"  >
<clipPath id="CLIPPATH_22" >
	<path transform="matrix(1 0 0 1 -164.43 147.49) translate(-396, -306)" d="M 0 612 L 792 612 L 792 0 L 0 0 Z" stroke-linecap="round" />
</clipPath>
<path style="stroke: none; stroke-width: 1; stroke-dasharray: none; stroke-linecap: butt; stroke-dashoffset: 0; stroke-linejoin: miter; stroke-miterlimit: 4; fill: rgb(207,103,60); fill-rule: nonzero; opacity: 1;" vector-effect="non-scaling-stroke"  transform=" translate(1.34, -0.69)" d="M 0 0 C -0.259 0 -0.582 -0.012 -0.971 -0.034 C -1.358 -0.057 -1.739 -0.122 -2.112 -0.229 C -2.485 -0.335 -2.813 -0.495 -3.094 -0.708 C -3.376 -0.921 -3.539 -1.218 -3.585 -1.599 C -3.616 -1.812 -3.593 -1.991 -3.517 -2.135 C -3.44 -2.28 -3.334 -2.406 -3.197 -2.512 C -3.06 -2.619 -2.896 -2.694 -2.706 -2.74 C -2.516 -2.786 -2.329 -2.809 -2.146 -2.809 C -1.812 -2.809 -1.48 -2.763 -1.153 -2.672 C -0.826 -2.581 -0.529 -2.451 -0.263 -2.284 C 0.003 -2.116 0.229 -1.903 0.411 -1.644 C 0.594 -1.385 0.708 -1.081 0.753 -0.731 L 0.845 0 Z M 0.365 -3.471 L 0.319 -3.471 C -0.137 -4.064 -0.7 -4.491 -1.37 -4.75 C -2.04 -5.008 -2.726 -5.138 -3.426 -5.138 C -3.943 -5.138 -4.43 -5.065 -4.887 -4.921 C -5.344 -4.776 -5.735 -4.56 -6.062 -4.27 C -6.391 -3.981 -6.63 -3.623 -6.782 -3.197 C -6.935 -2.771 -6.973 -2.276 -6.896 -1.712 C -6.759 -0.753 -6.397 -0.012 -5.812 0.514 C -5.226 1.039 -4.533 1.427 -3.733 1.678 C -2.935 1.929 -2.098 2.078 -1.222 2.124 C -0.347 2.169 0.448 2.192 1.164 2.192 C 1.24 2.801 1.088 3.284 0.708 3.642 C 0.327 4 -0.16 4.179 -0.754 4.179 C -1.317 4.179 -1.847 4.061 -2.341 3.825 C -2.836 3.588 -3.296 3.265 -3.723 2.854 L -5.275 4.727 C -4.56 5.32 -3.757 5.766 -2.866 6.062 C -1.976 6.359 -1.073 6.508 -0.16 6.508 C 0.845 6.508 1.655 6.382 2.271 6.131 C 2.889 5.88 3.356 5.51 3.676 5.023 C 3.996 4.536 4.182 3.939 4.235 3.231 C 4.289 2.523 4.247 1.705 4.11 0.776 L 3.334 -4.864 L 0.183 -4.864 Z" stroke-linecap="round" />
</g>
		<g transform="matrix(1.33 0 0 -1.33 241.12 195.82)" clip-path="url(#CLIPPATH_23)"  >
<clipPath id="CLIPPATH_23" >
	<path transform="matrix(1 0 0 1 -180.48 147.35) translate(-396, -306)" d="M 0 612 L 792 612 L 792 0 L 0 0 Z" stroke-linecap="round" />
</clipPath>
<path style="stroke: none; stroke-width: 1; stroke-dasharray: none; stroke-linecap: butt; stroke-dashoffset: 0; stroke-linejoin: miter; stroke-miterlimit: 4; fill: rgb(207,103,60); fill-rule: nonzero; opacity: 1;" vector-effect="non-scaling-stroke"  transform=" translate(-7.67, 5.41)" d="M 0 0 L 3.288 0 L 3.083 -1.507 L 3.129 -1.507 C 3.266 -1.294 3.448 -1.081 3.677 -0.868 C 3.905 -0.655 4.164 -0.465 4.453 -0.297 C 4.742 -0.13 5.069 0.007 5.435 0.114 C 5.8 0.22 6.188 0.274 6.6 0.274 C 7.376 0.274 8.045 0.114 8.608 -0.206 C 9.172 -0.525 9.553 -1.028 9.75 -1.713 C 10.253 -0.998 10.805 -0.488 11.406 -0.183 C 12.007 0.122 12.719 0.274 13.541 0.274 C 14.287 0.274 14.896 0.148 15.368 -0.103 C 15.84 -0.354 16.197 -0.697 16.441 -1.13 C 16.685 -1.564 16.829 -2.075 16.875 -2.66 C 16.921 -3.247 16.897 -3.875 16.807 -4.544 L 15.893 -11.098 L 12.468 -11.098 L 13.358 -4.636 C 13.435 -4.118 13.389 -3.673 13.222 -3.3 C 13.054 -2.927 12.688 -2.74 12.125 -2.74 C 11.729 -2.74 11.391 -2.805 11.109 -2.935 C 10.827 -3.064 10.588 -3.243 10.39 -3.471 C 10.191 -3.699 10.039 -3.966 9.934 -4.27 C 9.826 -4.575 9.75 -4.895 9.705 -5.229 L 8.883 -11.098 L 5.458 -11.098 L 6.279 -5.229 C 6.31 -5.032 6.337 -4.788 6.359 -4.499 C 6.383 -4.209 6.367 -3.936 6.313 -3.677 C 6.261 -3.418 6.143 -3.197 5.96 -3.014 C 5.777 -2.832 5.488 -2.74 5.093 -2.74 C 4.65 -2.74 4.281 -2.82 3.984 -2.98 C 3.688 -3.14 3.448 -3.353 3.266 -3.62 C 3.083 -3.886 2.946 -4.187 2.854 -4.521 C 2.764 -4.856 2.694 -5.207 2.649 -5.572 L 1.873 -11.098 L -1.553 -11.098 Z" stroke-linecap="round" />
</g>
		<g transform="matrix(1.33 0 0 -1.33 263.49 196)" clip-path="url(#CLIPPATH_24)"  >
<clipPath id="CLIPPATH_24" >
	<path transform="matrix(1 0 0 1 -197.25 147.49) translate(-396, -306)" d="M 0 612 L 792 612 L 792 0 L 0 0 Z" stroke-linecap="round" />
</clipPath>
<path style="stroke: none; stroke-width: 1; stroke-dasharray: none; stroke-linecap: butt; stroke-dashoffset: 0; stroke-linejoin: miter; stroke-miterlimit: 4; fill: rgb(207,103,60); fill-rule: nonzero; opacity: 1;" vector-effect="non-scaling-stroke"  transform=" translate(2.41, 1.26)" d="M 0 0 C 0.092 0.578 -0.03 1.073 -0.365 1.484 C -0.7 1.895 -1.18 2.101 -1.804 2.101 C -2.185 2.101 -2.527 2.04 -2.831 1.918 C -3.136 1.796 -3.402 1.64 -3.631 1.45 C -3.858 1.259 -4.049 1.039 -4.201 0.788 C -4.354 0.537 -4.46 0.274 -4.521 0 Z M 2.215 -4.887 C 1.576 -5.587 0.811 -6.127 -0.08 -6.508 C -0.971 -6.888 -1.864 -7.079 -2.763 -7.079 C -3.615 -7.079 -4.399 -6.942 -5.114 -6.667 C -5.83 -6.394 -6.428 -6.002 -6.907 -5.492 C -7.387 -4.982 -7.737 -4.369 -7.957 -3.653 C -8.179 -2.938 -8.228 -2.139 -8.105 -1.256 C -7.984 -0.373 -7.714 0.426 -7.295 1.142 C -6.877 1.857 -6.355 2.47 -5.731 2.98 C -5.107 3.49 -4.399 3.882 -3.607 4.156 C -2.816 4.43 -1.994 4.567 -1.142 4.567 C -0.351 4.567 0.351 4.43 0.959 4.156 C 1.568 3.882 2.063 3.49 2.443 2.98 C 2.824 2.47 3.087 1.857 3.231 1.142 C 3.376 0.426 3.387 -0.373 3.266 -1.256 L 3.105 -2.329 L -4.841 -2.329 C -4.795 -2.984 -4.57 -3.505 -4.167 -3.894 C -3.764 -4.282 -3.228 -4.476 -2.558 -4.476 C -1.994 -4.476 -1.503 -4.35 -1.084 -4.099 C -0.666 -3.848 -0.281 -3.524 0.068 -3.128 Z" stroke-linecap="round" />
</g>
		<g transform="matrix(1.33 0 0 -1.33 278.96 196)" clip-path="url(#CLIPPATH_25)"  >
<clipPath id="CLIPPATH_25" >
	<path transform="matrix(1 0 0 1 -208.85 147.49) translate(-396, -306)" d="M 0 612 L 792 612 L 792 0 L 0 0 Z" stroke-linecap="round" />
</clipPath>
<path style="stroke: none; stroke-width: 1; stroke-dasharray: none; stroke-linecap: butt; stroke-dashoffset: 0; stroke-linejoin: miter; stroke-miterlimit: 4; fill: rgb(207,103,60); fill-rule: nonzero; opacity: 1;" vector-effect="non-scaling-stroke"  transform=" translate(2.75, 2.28)" d="M 0 0 C -0.411 0.624 -1.035 0.937 -1.873 0.937 C -2.162 0.937 -2.451 0.868 -2.74 0.731 C -3.029 0.594 -3.197 0.357 -3.243 0.023 C -3.288 -0.251 -3.174 -0.453 -2.9 -0.582 C -2.626 -0.711 -2.283 -0.826 -1.873 -0.925 C -1.462 -1.024 -1.017 -1.13 -0.537 -1.244 C -0.058 -1.358 0.38 -1.538 0.776 -1.781 C 1.172 -2.024 1.48 -2.356 1.701 -2.774 C 1.922 -3.193 1.986 -3.752 1.895 -4.453 C 1.804 -5.168 1.567 -5.758 1.187 -6.222 C 0.807 -6.687 0.354 -7.06 -0.172 -7.341 C -0.696 -7.623 -1.271 -7.821 -1.896 -7.935 C -2.52 -8.049 -3.129 -8.106 -3.723 -8.106 C -4.499 -8.106 -5.268 -7.996 -6.028 -7.775 C -6.79 -7.555 -7.406 -7.162 -7.878 -6.599 L -5.48 -4.292 C -5.206 -4.689 -4.891 -4.989 -4.533 -5.195 C -4.176 -5.4 -3.737 -5.503 -3.22 -5.503 C -2.824 -5.503 -2.459 -5.446 -2.124 -5.332 C -1.789 -5.217 -1.599 -5.008 -1.553 -4.704 C -1.507 -4.415 -1.618 -4.198 -1.884 -4.053 C -2.15 -3.909 -2.493 -3.787 -2.912 -3.688 C -3.33 -3.589 -3.779 -3.482 -4.259 -3.368 C -4.738 -3.254 -5.18 -3.083 -5.583 -2.854 C -5.986 -2.626 -6.303 -2.303 -6.531 -1.884 C -6.759 -1.465 -6.82 -0.906 -6.714 -0.206 C -6.622 0.449 -6.409 1.012 -6.074 1.484 C -5.739 1.956 -5.332 2.344 -4.853 2.649 C -4.373 2.953 -3.845 3.178 -3.266 3.322 C -2.688 3.467 -2.108 3.54 -1.53 3.54 C -0.8 3.54 -0.076 3.433 0.639 3.22 C 1.354 3.006 1.933 2.626 2.375 2.078 Z" stroke-linecap="round" />
</g>
		<g transform="matrix(1.33 0 0 -1.33 300.31 192.62)" clip-path="url(#CLIPPATH_26)"  >
<clipPath id="CLIPPATH_26" >
	<path transform="matrix(1 0 0 1 -224.86 144.96) translate(-396, -306)" d="M 0 612 L 792 612 L 792 0 L 0 0 Z" stroke-linecap="round" />
</clipPath>
<path style="stroke: none; stroke-width: 1; stroke-dasharray: none; stroke-linecap: butt; stroke-dashoffset: 0; stroke-linejoin: miter; stroke-miterlimit: 4; fill: rgb(207,103,60); fill-rule: nonzero; opacity: 1;" vector-effect="non-scaling-stroke"  transform=" translate(-0.65, 8.08)" d="M 0 0 L 3.562 0 L 1.301 -16.167 L -2.261 -16.167 Z" stroke-linecap="round" />
</g>
		<g transform="matrix(1.33 0 0 -1.33 312.69 195.82)" clip-path="url(#CLIPPATH_27)"  >
<clipPath id="CLIPPATH_27" >
	<path transform="matrix(1 0 0 1 -234.15 147.35) translate(-396, -306)" d="M 0 612 L 792 612 L 792 0 L 0 0 Z" stroke-linecap="round" />
</clipPath>
<path style="stroke: none; stroke-width: 1; stroke-dasharray: none; stroke-linecap: butt; stroke-dashoffset: 0; stroke-linejoin: miter; stroke-miterlimit: 4; fill: rgb(207,103,60); fill-rule: nonzero; opacity: 1;" vector-effect="non-scaling-stroke"  transform=" translate(-4.28, 5.41)" d="M 0 0 L 3.288 0 L 3.083 -1.507 L 3.129 -1.507 C 3.266 -1.294 3.448 -1.081 3.677 -0.868 C 3.905 -0.655 4.164 -0.465 4.453 -0.297 C 4.742 -0.13 5.069 0.007 5.435 0.114 C 5.8 0.22 6.188 0.274 6.6 0.274 C 7.467 0.274 8.152 0.14 8.654 -0.126 C 9.157 -0.392 9.522 -0.762 9.75 -1.233 C 9.979 -1.705 10.101 -2.261 10.116 -2.9 C 10.131 -3.54 10.085 -4.232 9.979 -4.978 L 9.134 -11.098 L 5.709 -11.098 L 6.462 -5.663 C 6.508 -5.343 6.546 -5.012 6.576 -4.67 C 6.606 -4.327 6.584 -4.012 6.508 -3.722 C 6.432 -3.433 6.287 -3.197 6.074 -3.014 C 5.86 -2.832 5.533 -2.74 5.093 -2.74 C 4.65 -2.74 4.281 -2.82 3.984 -2.98 C 3.688 -3.14 3.448 -3.353 3.266 -3.62 C 3.083 -3.886 2.946 -4.187 2.854 -4.521 C 2.764 -4.856 2.694 -5.207 2.649 -5.572 L 1.873 -11.098 L -1.553 -11.098 Z" stroke-linecap="round" />
</g>
		<g transform="matrix(1.33 0 0 -1.33 330.06 196)" clip-path="url(#CLIPPATH_28)"  >
<clipPath id="CLIPPATH_28" >
	<path transform="matrix(1 0 0 1 -247.18 147.49) translate(-396, -306)" d="M 0 612 L 792 612 L 792 0 L 0 0 Z" stroke-linecap="round" />
</clipPath>
<path style="stroke: none; stroke-width: 1; stroke-dasharray: none; stroke-linecap: butt; stroke-dashoffset: 0; stroke-linejoin: miter; stroke-miterlimit: 4; fill: rgb(207,103,60); fill-rule: nonzero; opacity: 1;" vector-effect="non-scaling-stroke"  transform=" translate(2.81, 1.96)" d="M 0 0 C -0.138 0.243 -0.347 0.445 -0.628 0.605 C -0.91 0.765 -1.226 0.845 -1.576 0.845 C -2.443 0.845 -3.151 0.585 -3.699 0.068 C -4.247 -0.449 -4.583 -1.127 -4.704 -1.964 C -4.826 -2.801 -4.686 -3.479 -4.282 -3.996 C -3.879 -4.514 -3.243 -4.772 -2.375 -4.772 C -1.995 -4.772 -1.652 -4.689 -1.348 -4.521 C -1.043 -4.354 -0.776 -4.156 -0.549 -3.928 L 1.37 -6.302 C 0.745 -6.851 0.061 -7.235 -0.686 -7.456 C -1.432 -7.676 -2.132 -7.787 -2.786 -7.787 C -3.639 -7.787 -4.423 -7.65 -5.138 -7.375 C -5.854 -7.102 -6.451 -6.71 -6.931 -6.2 C -7.41 -5.69 -7.761 -5.077 -7.98 -4.361 C -8.202 -3.646 -8.251 -2.847 -8.129 -1.964 C -8.008 -1.081 -7.737 -0.282 -7.318 0.434 C -6.9 1.149 -6.379 1.762 -5.755 2.272 C -5.131 2.782 -4.423 3.174 -3.631 3.448 C -2.84 3.722 -2.018 3.859 -1.165 3.859 C -0.511 3.859 0.163 3.748 0.855 3.528 C 1.549 3.307 2.123 2.922 2.58 2.375 Z" stroke-linecap="round" />
</g>
		<g transform="matrix(1.33 0 0 -1.33 340.32 200.79)" clip-path="url(#CLIPPATH_29)"  >
<clipPath id="CLIPPATH_29" >
	<path transform="matrix(1 0 0 1 -254.87 151.08) translate(-396, -306)" d="M 0 612 L 792 612 L 792 0 L 0 0 Z" stroke-linecap="round" />
</clipPath>
<path style="stroke: none; stroke-width: 1; stroke-dasharray: none; stroke-linecap: butt; stroke-dashoffset: 0; stroke-linejoin: miter; stroke-miterlimit: 4; fill: rgb(207,103,60); fill-rule: nonzero; opacity: 1;" vector-effect="non-scaling-stroke"  transform=" translate(-2.1, 0)" d="M 0 0 C 0.046 0.289 0.141 0.563 0.285 0.822 C 0.43 1.081 0.608 1.305 0.822 1.496 C 1.035 1.686 1.278 1.834 1.553 1.941 C 1.827 2.047 2.108 2.101 2.397 2.101 C 2.976 2.101 3.44 1.895 3.79 1.484 C 4.141 1.073 4.277 0.578 4.201 0 C 4.156 -0.29 4.061 -0.563 3.916 -0.822 C 3.771 -1.081 3.589 -1.306 3.368 -1.496 C 3.147 -1.687 2.903 -1.834 2.638 -1.941 C 2.371 -2.047 2.093 -2.101 1.804 -2.101 C 1.515 -2.101 1.248 -2.047 1.005 -1.941 C 0.761 -1.834 0.56 -1.687 0.399 -1.496 C 0.24 -1.306 0.122 -1.081 0.046 -0.822 C -0.03 -0.563 -0.046 -0.29 0 0" stroke-linecap="round" />
</g>
</g>
</g>
<g transform="matrix(NaN NaN NaN NaN 0 0)"  >
<g style=""   >
</g>
</g>
</svg>